<?xml version="1.0" standalone="no"?>
<!DOCTYPE svg PUBLIC "-//W3C//DTD SVG 20010904//EN"
 "http://www.w3.org/TR/2001/REC-SVG-20010904/DTD/svg10.dtd">
<svg version="1.0" xmlns="http://www.w3.org/2000/svg"
 width="460.000000pt" height="460.000000pt" viewBox="0 0 460.000000 460.000000"
 preserveAspectRatio="xMidYMid meet">
<metadata>
Created by potrace 1.11, written by Peter Selinger 2001-2013
</metadata>
<g transform="translate(0.000000,460.000000) scale(0.100000,-0.100000)"
fill="#000000" stroke="none">
<path d="M1 2773 l0 -1828 39 -116 c21 -64 56 -151 78 -195 149 -294 418 -513
739 -602 l98 -27 1823 -3 1822 -2 -2 1822 -3 1823 -27 98 c-92 333 -321 605
-632 753 -97 46 -246 89 -278 81 -10 -3 -16 -2 -13 3 3 4 -10 10 -28 13 -17 3
-839 6 -1825 6 l-1792 1 1 -1827z"/>
</g>
</svg>
